<svg width="3" height="12" viewBox="0 0 3 12" fill="none" xmlns="http://www.w3.org/2000/svg">
<path d="M1.5 6.375C1.77614 6.375 2 6.09518 2 5.75C2 5.40482 1.77614 5.125 1.5 5.125C1.22386 5.125 1 5.40482 1 5.75C1 6.09518 1.22386 6.375 1.5 6.375Z" stroke="#A5BFCC" stroke-linecap="round" stroke-linejoin="round"/>
<path d="M1.5 2C1.77614 2 2 1.72018 2 1.375C2 1.02982 1.77614 0.75 1.5 0.75C1.22386 0.75 1 1.02982 1 1.375C1 1.72018 1.22386 2 1.5 2Z" stroke="#A5BFCC" stroke-linecap="round" stroke-linejoin="round"/>
<path d="M1.5 10.75C1.77614 10.75 2 10.4702 2 10.125C2 9.77982 1.77614 9.5 1.5 9.5C1.22386 9.5 1 9.77982 1 10.125C1 10.4702 1.22386 10.75 1.5 10.75Z" stroke="#A5BFCC" stroke-linecap="round" stroke-linejoin="round"/>
</svg>
