<svg width="396" height="407" viewBox="0 0 396 407" fill="none" xmlns="http://www.w3.org/2000/svg">
<circle cx="197.964" cy="190.887" r="110.089" transform="rotate(21 197.964 190.887)" fill="#7E99A3"/>
<path d="M208.766 251.958C221.886 251.958 232.046 250.118 239.246 246.438C246.446 242.758 250.046 237.398 250.046 230.358C250.046 224.118 247.886 218.758 243.566 214.278C239.246 209.638 233.886 205.718 227.486 202.518C221.086 199.318 212.366 195.558 201.326 191.238C200.366 190.918 198.046 190.038 194.366 188.598C179.326 182.518 167.726 176.438 159.566 170.358C151.566 164.278 147.566 156.438 147.566 146.838C147.566 136.118 151.806 128.038 160.286 122.598C168.766 117.158 179.646 114.438 192.926 114.438C202.686 114.438 211.646 115.718 219.806 118.278C228.126 120.678 234.686 124.038 239.486 128.358C244.446 132.678 246.926 137.558 246.926 142.998C245.006 143.958 243.166 144.438 241.406 144.438C239.486 144.438 237.486 144.038 235.406 143.238C233.486 142.278 230.606 140.758 226.766 138.678C220.526 135.318 214.686 132.678 209.246 130.758C203.806 128.678 197.406 127.638 190.046 127.638C180.766 127.638 173.246 129.238 167.486 132.438C161.726 135.638 158.846 140.118 158.846 145.878C158.846 150.358 160.766 154.438 164.606 158.118C168.606 161.798 173.566 165.078 179.486 167.958C185.566 170.678 193.646 173.958 203.726 177.798C216.526 182.758 227.086 187.398 235.406 191.718C243.726 196.038 250.766 201.558 256.526 208.278C262.446 214.838 265.406 222.678 265.406 231.798C265.406 242.518 260.286 250.838 250.046 256.758C239.806 262.518 227.086 265.398 211.886 265.398C199.886 265.398 188.046 263.638 176.366 260.118C164.686 256.598 154.686 251.398 146.366 244.518C138.046 237.478 132.766 229.078 130.526 219.318C130.526 214.998 131.726 211.318 134.126 208.278C136.526 205.078 139.486 203.478 143.006 203.478C143.006 213.878 145.886 222.758 151.646 230.118C157.566 237.318 165.486 242.758 175.406 246.438C185.486 250.118 196.606 251.958 208.766 251.958Z" fill="#A5BFCC"/>
<path d="M224.018 127.889L222.104 269.408L186.445 225.772L130.746 234.34L224.018 127.889Z" stroke="#F8F8F8" stroke-width="8" stroke-linecap="round" stroke-linejoin="round"/>
<path d="M182.159 169.137L190.336 172.544L181.336 182.857L173.336 178.857L182.159 169.137Z" fill="#A5BFCC"/>
</svg>
